HIERARCHY
ROOT SimulationBone
{
	OFFSET 0.000000 0.000000 0.000000
	CHANNELS 6 Xposition Yposition Zposition Zrotation Yrotation Xrotation 
	JOINT Hips
	{
		OFFSET 0.000000 0.000000 0.000000
		CHANNELS 6 Xposition Yposition Zposition Zrotation Yrotation Xrotation 
		JOINT RightUpLeg
		{
			OFFSET 0.103459 1.857839 10.548500
			CHANNELS 3 Zrotation Yrotation Xrotation
			JOINT RightLeg
			{
				OFFSET 43.500004 -0.000053 -0.000011
				CHANNELS 3 Zrotation Yrotation Xrotation
				JOINT RightFoot
				{
					OFFSET 42.372192 0.000015 -0.000008
					CHANNELS 3 Zrotation Yrotation Xrotation
					JOINT RightToe
					{
						OFFSET 17.300007 0.000002 0.000013
						CHANNELS 3 Zrotation Yrotation Xrotation
						End Site
						{
							OFFSET 0.000000 0.000000 0.000000
						}
					}
				}
			}
		}
		JOINT LeftUpLeg
		{
			OFFSET 0.103460 1.857826 -10.548500
			CHANNELS 3 Zrotation Yrotation Xrotation
			JOINT LeftLeg
			{
				OFFSET 43.500046 -0.000019 0.000011
				CHANNELS 3 Zrotation Yrotation Xrotation
				JOINT LeftFoot
				{
					OFFSET 42.372261 0.000004 0.000012
					CHANNELS 3 Zrotation Yrotation Xrotation
					JOINT LeftToe
					{
						OFFSET 17.299995 -0.000004 0.000006
						CHANNELS 3 Zrotation Yrotation Xrotation
						End Site
						{
							OFFSET 0.000000 0.000000 0.000000
						}
					}
				}
			}
		}
		JOINT Spine
		{
			OFFSET 6.901963 -2.603745 -0.000005
			CHANNELS 3 Zrotation Yrotation Xrotation
			JOINT Spine1
			{
				OFFSET 12.588102 0.000012 0.000012
				CHANNELS 3 Zrotation Yrotation Xrotation
				JOINT Spine2
				{
					OFFSET 12.343202 0.000010 -0.000009
					CHANNELS 3 Zrotation Yrotation Xrotation
					JOINT Neck
					{
						OFFSET 25.832901 -0.000008 0.000006
						CHANNELS 3 Zrotation Yrotation Xrotation
						JOINT Head
						{
							OFFSET 11.766603 0.000007 -0.000001
							CHANNELS 3 Zrotation Yrotation Xrotation
							End Site
							{
								OFFSET 0.000000 0.000000 0.000000
							}
						}
					}
					JOINT RightShoulder
					{
						OFFSET 19.745903 -1.480391 6.000108
						CHANNELS 3 Zrotation Yrotation Xrotation
						JOINT RightArm
						{
							OFFSET 11.284125 -0.000031 -0.000021
							CHANNELS 3 Zrotation Yrotation Xrotation
							JOINT RightForeArm
							{
								OFFSET 33.000046 0.000024 0.000034
								CHANNELS 3 Zrotation Yrotation Xrotation
								JOINT RightHand
								{
									OFFSET 25.200014 0.000020 0.000007
									CHANNELS 3 Zrotation Yrotation Xrotation
									End Site
									{
										OFFSET 0.000000 0.000000 0.000000
									}
								}
							}
						}
					}
					JOINT LeftShoulder
					{
						OFFSET 19.746098 -1.480371 -6.000075
						CHANNELS 3 Zrotation Yrotation Xrotation
						JOINT LeftArm
						{
							OFFSET 11.284128 -0.000021 -0.000009
							CHANNELS 3 Zrotation Yrotation Xrotation
							JOINT LeftForeArm
							{
								OFFSET 33.000095 0.000034 0.000006
								CHANNELS 3 Zrotation Yrotation Xrotation
								JOINT LeftHand
								{
									OFFSET 25.199781 0.000147 0.000427
									CHANNELS 3 Zrotation Yrotation Xrotation
									End Site
									{
										OFFSET 0.000000 0.000000 0.000000
									}
								}
							}
						}
					}
				}
			}
		}
	}
}
MOTION
Frames: 11
Frame Time: 0.016667
56.765552 0.000000 87.682676 0.000000 96.974483 0.000000 -3.756087 82.801804 -1.066717 85.848826 -2.483774 -172.892820 136.543554 0.940000 176.622094 -47.646699 2.214149 -3.591540 82.222609 1.005601 -6.670239 21.454555 0.003113 0.000017 174.700830 4.706391 -175.984728 -79.251674 -2.691129 4.442209 73.524431 -1.248119 5.969891 21.454555 -0.003090 -0.000001 6.809954 -1.028131 0.305873 3.602406 -2.065113 0.580106 3.284111 -2.061713 0.592576 8.926614 1.435127 1.019669 -20.915424 6.678648 -1.418899 -167.842020 -82.469218 -13.844996 -12.603108 19.654537 -40.428350 -85.742348 -5.098264 2.514086 1.050010 -7.124771 -12.286555 -174.216171 85.720150 7.447144 -26.395347 -33.163289 39.151391 -110.844106 -2.509889 -3.051137 -4.138897 17.315962 -1.569694 
55.580164 0.000000 85.511212 0.000000 97.345097 0.000000 -3.014508 81.729552 -0.862510 87.719027 -3.942290 -173.494658 138.021392 1.791393 174.399946 -52.470736 2.945714 -3.398053 85.216129 1.320776 -5.158330 21.454557 0.003123 0.000020 174.022202 6.893581 -174.636080 -84.669728 -3.094501 4.641083 76.069768 -2.081255 3.935346 21.454556 -0.003093 0.000008 7.306008 -1.424008 0.169101 4.597054 -2.853473 0.282107 4.278534 -2.851844 0.299333 7.041863 2.041486 0.831738 -19.674664 7.696460 -1.818808 -164.663578 -82.041911 -17.064694 -10.468638 20.049926 -36.178026 -81.728002 -7.805670 2.517152 -0.799794 -8.702764 -10.830199 -166.091736 85.342564 15.628949 -26.680448 -36.373273 36.537437 -107.819742 -1.059774 -3.179755 -3.652341 14.417470 -3.445139 
54.518769 0.000000 83.231534 0.000000 97.698980 0.000000 -2.350090 80.956093 -0.775489 88.797603 -4.949944 -174.563339 139.402138 2.210407 172.708191 -56.282960 3.399885 -3.465326 88.601903 1.546101 -4.819515 21.454557 0.003121 0.000020 172.144208 8.398410 -174.116084 -89.212713 -3.389615 5.425557 78.366379 -2.979618 2.781629 21.454555 -0.003093 0.000007 7.557643 -1.727573 0.156947 5.101131 -3.460247 0.238221 4.782405 -3.458870 0.259119 5.918712 3.070031 0.427159 -19.647410 7.745084 -2.065142 -166.171998 -81.423032 -15.538965 -8.329928 21.219477 -32.327004 -77.722832 -10.298604 2.526512 0.289496 -10.520455 -10.352986 -161.349691 84.309787 20.418227 -26.641512 -39.770200 35.130712 -104.110093 -0.829744 -2.874021 -3.839264 12.897078 -6.028401 
53.575524 0.000000 80.851530 0.000000 98.035309 0.000000 -1.839278 80.445652 -0.753480 89.287816 -5.435107 -175.995684 140.704428 2.093279 171.389888 -59.234122 3.657963 -3.669986 92.067882 1.766327 -5.123668 21.454556 0.003115 0.000018 169.221915 9.154036 -174.186050 -92.844774 -3.507437 6.420762 80.325393 -3.849596 2.108711 21.454552 -0.003092 0.000003 7.629399 -1.902976 0.223417 5.242803 -3.813974 0.361118 4.923944 -3.811854 0.384162 5.276331 4.021239 -0.034672 -20.283822 7.442055 -2.289712 -169.354163 -80.590576 -12.311003 -6.284092 23.153656 -29.124275 -73.636853 -12.418087 2.504687 2.571264 -12.290228 -10.581391 -159.876825 83.182975 21.920010 -26.560186 -43.156967 33.383325 -99.646625 -0.305603 -2.614307 -4.133859 12.457430 -8.799257 
52.744586 0.000000 78.379087 0.000000 98.353273 0.000000 -1.559918 80.162453 -0.745937 89.378102 -5.328339 -177.706706 141.940756 1.344995 170.285796 -61.471223 3.818629 -3.910560 95.304784 2.008322 -5.539824 21.454557 0.003110 0.000017 165.446784 9.083700 -174.550019 -95.518678 -3.441607 7.252985 81.864550 -4.562279 1.528216 21.454550 -0.003093 -0.000000 7.586772 -1.913372 0.320989 5.154224 -3.838981 0.557288 4.835363 -3.835681 0.580487 4.846617 4.398274 -0.387278 -21.039368 7.409987 -2.616002 -171.834007 -79.537390 -9.786973 -4.478150 25.875655 -26.847886 -69.382604 -13.998753 2.432056 4.254229 -13.682664 -11.114363 -160.475865 82.487974 21.323327 -26.505699 -46.367192 29.615754 -94.335191 2.085409 -2.643608 -3.982651 12.853410 -11.263283 
52.020109 0.000000 75.822092 0.000000 98.652069 0.000000 -1.550787 80.083268 -0.721106 89.241574 -4.670789 -179.574658 143.192503 0.022062 169.283537 -63.061190 3.945329 -4.118461 98.049881 2.242698 -5.680712 21.454559 0.003111 0.000017 161.111514 8.254807 -174.869177 -97.169254 -3.241129 7.644678 82.930699 -4.995438 0.797519 21.454549 -0.003095 0.000002 7.493770 -1.755164 0.401426 4.965827 -3.525752 0.728024 4.647097 -3.521425 0.749326 4.400046 3.925333 -0.528543 -21.476349 8.047464 -3.125140 -172.492867 -78.322531 -9.108192 -3.070771 29.324153 -25.607437 -64.964142 -14.934876 2.315719 4.178223 -14.551696 -11.618025 -162.532111 82.534263 19.241777 -26.351265 -49.296742 22.748372 -88.151593 7.229659 -2.825139 -3.035305 13.806890 -12.847013 
51.396250 0.000000 73.188434 0.000000 98.930906 0.000000 -1.689876 80.235046 -0.716457 89.052346 -3.960817 178.711905 144.811935 -1.235696 168.468419 -63.760921 3.930097 -4.304914 100.211599 2.448300 -5.724238 21.454562 0.003111 0.000018 156.827605 7.271299 -174.841764 -97.675864 -3.041142 7.684721 83.563539 -5.145971 0.226536 21.454550 -0.003096 0.000004 7.406050 -1.558374 0.418065 4.790469 -3.132528 0.772025 4.471882 -3.127941 0.790945 3.830586 3.215061 -0.611883 -21.549353 8.852613 -3.661971 -172.207018 -77.058271 -9.390994 -2.000717 32.995007 -24.669401 -60.728850 -15.378430 2.184296 3.918912 -15.304031 -12.470696 -164.466145 82.876646 17.282286 -26.102687 -52.047393 14.839776 -81.382475 13.030240 -2.839071 -1.842231 14.711203 -12.741632 
50.867167 0.000000 70.486000 0.000000 99.188993 0.000000 -1.845013 80.634683 -0.765673 88.971773 -3.641410 177.421453 147.070787 -1.839268 167.932808 -63.373502 3.710626 -4.497396 101.766906 2.631076 -5.936726 21.454561 0.003104 0.000018 153.118503 6.699917 -174.365483 -96.947615 -2.924347 7.543587 83.853238 -5.065070 0.144831 21.454552 -0.003092 0.000001 7.362589 -1.447639 0.345153 4.705797 -2.907944 0.631835 4.387278 -2.904210 0.649397 3.101304 2.944497 -0.814464 -21.359300 9.241313 -4.046065 -171.900004 -75.868732 -9.697290 -1.105606 36.366106 -23.182993 -56.979641 -15.549570 2.054318 5.111516 -16.243459 -14.137363 -164.424386 82.990496 17.323885 -25.902921 -54.705122 8.200289 -74.419870 17.201730 -2.797799 -0.980831 15.046204 -10.557736 
50.427014 0.000000 67.722677 0.000000 99.425549 0.000000 -2.007618 81.208672 -0.828192 88.956686 -3.520585 176.447360 149.733810 -1.986494 167.535880 -62.199137 3.579962 -4.710726 102.812002 2.795870 -6.375848 21.454560 0.003095 0.000017 149.935110 6.316895 -173.703704 -95.069293 -2.754140 7.339713 84.004755 -4.871695 0.428920 21.454555 -0.003090 -0.000003 7.346081 -1.391880 0.236277 4.675591 -2.792024 0.416735 4.357098 -2.789595 0.433600 2.329711 3.170435 -1.121704 -21.259256 9.195862 -4.269947 -172.136981 -74.919897 -9.448942 -0.312497 39.421027 -20.778269 -53.507482 -15.679982 1.943114 6.731882 -16.887083 -16.456776 -163.426780 82.669220 18.335392 -25.065335 -56.867282 2.081957 -67.748372 19.635829 -2.724072 -0.294148 15.178680 -7.687906 
50.069948 0.000000 64.906354 0.000000 99.639788 0.000000 -2.197584 81.878408 -0.863994 88.900033 -3.337579 175.617632 152.508231 -1.996175 167.089936 -60.569797 3.812596 -4.927011 103.453547 2.932809 -7.016328 21.454561 0.003091 0.000016 147.124057 5.771745 -173.107645 -92.152475 -2.407031 7.153076 84.192035 -4.662000 0.897907 21.454557 -0.003094 -0.000002 7.326878 -1.335140 0.147652 4.639323 -2.675006 0.242179 4.320851 -2.673635 0.258343 1.618339 3.745346 -1.467832 -21.521237 8.855936 -4.371557 -173.206253 -74.344107 -8.348928 0.419695 42.281637 -17.295560 -50.058986 -15.941172 1.846828 7.501175 -16.792808 -18.983201 -162.964302 81.898855 18.809990 -22.925049 -58.101212 -4.661590 -61.786510 20.710095 -2.557439 0.510419 15.476851 -5.535377 
49.790125 0.000000 62.044916 0.000000 99.830927 0.000000 -2.421744 82.635307 -0.907351 88.719390 -3.167662 174.876621 155.334061 -1.910398 166.517171 -58.441714 4.257323 -5.057033 103.719912 2.991864 -7.712790 21.454562 0.003093 0.000015 144.648379 5.106796 -172.626652 -88.237396 -2.016354 6.927813 84.350171 -4.383412 1.594106 21.454557 -0.003096 0.000001 7.281829 -1.277784 0.067593 4.550982 -2.557146 0.085325 4.232536 -2.556723 0.100779 0.862822 4.315011 -1.779609 -21.821206 8.434419 -4.396686 -174.801999 -74.107009 -6.709948 1.035113 45.122739 -13.004852 -46.734616 -16.255145 1.760495 8.044174 -16.100108 -21.064875 -162.546069 81.123639 19.240912 -20.088487 -58.837727 -11.506893 -56.496107 20.831611 -2.367451 1.411978 15.350065 -3.874231 
